<svg width="127" height="131" viewBox="0 0 127 131" fill="none" xmlns="http://www.w3.org/2000/svg">
<g clip-path="url(#clip0_0_887)">
<path d="M0.000945906 83.2487C1.70008 81.786 3.29849 80.4285 4.875 79.0447C6.65734 77.4813 8.34771 75.8216 9.94174 74.0655C11.1548 72.7255 11.1416 72.6992 10.003 71.3241C6.70113 67.3215 4.07361 62.938 2.46644 57.9851C-1.47047 45.8328 0.596518 34.5782 7.80907 24.2302C13.9531 15.4148 22.3699 9.35839 32.2801 5.48718C52.6171 -2.44794 72.7614 -1.85675 92.4372 7.74247C101.388 12.1085 108.833 18.4014 113.847 27.1336C121.441 40.3632 121.077 53.5665 113.208 66.6077C112.827 67.2427 112.511 67.3609 111.837 67.0062C103.827 62.8022 95.253 61.0855 86.28 61.6067C75.0955 62.2592 65.0321 65.8545 56.8211 73.759C51.9821 78.4184 48.8422 84.0282 47.9226 90.7634C47.835 91.4115 47.5985 91.4991 46.9942 91.3984C42.812 90.7021 38.7175 89.6555 34.7718 88.1227C32.1968 87.1243 29.5036 87.0455 26.8455 86.7039C18.0345 85.5653 9.21041 84.4924 0.395074 83.3888C0.325007 83.3801 0.263698 83.3407 -0.0078125 83.2399L0.000945906 83.2487ZM59.1158 30.0195C71.071 30.0195 83.0263 30.0195 94.9771 30.0195C97.7579 30.0195 97.6966 30.0195 97.7842 27.2518C97.8192 26.1307 97.4995 25.8767 96.4004 25.8811C71.6535 25.9162 46.9066 25.9074 22.1597 25.9074C21.8313 25.9074 21.5028 25.9249 21.1744 25.903C20.6182 25.8592 20.3774 26.0738 20.4037 26.6519C20.4387 27.3788 20.4781 28.1189 20.3993 28.8371C20.2854 29.8268 20.662 30.0457 21.6123 30.0414C34.1149 30.0107 46.6132 30.0195 59.1158 30.0195ZM59.1027 45.5656C71.0185 45.5656 82.9387 45.57 94.8545 45.5569C95.7829 45.5569 96.9697 45.9729 97.5784 45.3423C98.1345 44.7643 97.6528 43.595 97.7623 42.7016C97.8893 41.6944 97.5171 41.4361 96.5098 41.4361C71.763 41.4667 47.0161 41.458 22.2692 41.4623C21.9057 41.4623 21.5379 41.4842 21.1744 41.458C20.6226 41.4142 20.373 41.6112 20.3993 42.198C20.4343 42.925 20.4693 43.6651 20.3861 44.3833C20.2767 45.3554 20.6226 45.5963 21.5904 45.5919C34.093 45.5569 46.5913 45.57 59.0939 45.57L59.1027 45.5656ZM40.8458 61.1031C46.6745 61.1031 52.4988 61.1118 58.3276 61.0943C59.2647 61.0943 60.4602 61.5016 61.0646 60.906C61.6689 60.3104 61.1609 59.1018 61.2835 58.1734C61.4193 57.1705 61.0033 56.9779 60.0661 56.9779C49.4684 57.0085 38.8664 56.9954 28.2687 56.9954C25.939 56.9954 23.6049 57.0173 21.2751 56.9822C20.6095 56.9735 20.3511 57.1749 20.3993 57.8493C20.4474 58.5763 20.4693 59.312 20.3993 60.0345C20.3117 60.9235 20.662 61.125 21.5072 61.1206C27.9534 61.0899 34.3996 61.1031 40.8458 61.1031Z" fill="#1C73E8"/>
<path d="M113.919 130.889C112.312 129.43 110.696 127.972 109.093 126.505C107.377 124.933 105.656 123.361 103.961 121.767C103.571 121.399 103.23 121.316 102.7 121.482C97.3966 123.142 91.9489 123.737 86.4267 123.413C77.9442 122.923 70.0222 120.598 63.0637 115.561C57.3751 111.445 53.2236 106.181 51.5902 99.2095C50.4121 94.1822 50.999 89.3081 53.136 84.6224C56.6175 76.9894 62.7352 72.1592 70.1624 68.774C74.5985 66.7509 79.2974 65.5904 84.132 65.1086C91.9314 64.3292 99.503 65.3539 106.794 68.3186C111.927 70.4075 116.433 73.3853 120.204 77.4711C128.669 86.65 129.352 99.5117 121.478 109.347C119.573 111.73 117.388 113.784 114.935 115.557C114.357 115.977 114.178 116.415 114.182 117.099C114.213 121.18 114.2 125.266 114.2 129.347C114.2 129.811 114.2 130.276 114.2 130.74C114.103 130.788 114.011 130.836 113.915 130.884L113.919 130.889Z" fill="#C3DDFF"/>
<path d="M59.1151 30.0192C46.6125 30.0192 34.1143 30.0061 21.6116 30.0411C20.6614 30.0411 20.2847 29.8265 20.3986 28.8368C20.4818 28.1186 20.4424 27.3785 20.403 26.6516C20.3767 26.0692 20.6176 25.859 21.1737 25.9028C21.4978 25.929 21.8306 25.9071 22.159 25.9071C46.9059 25.9071 71.6528 25.9159 96.3997 25.8809C97.5032 25.8809 97.8185 26.1305 97.7835 27.2516C97.6959 30.0148 97.7572 30.0192 94.9764 30.0192C83.0212 30.0192 71.066 30.0192 59.1151 30.0192Z" fill="white"/>
<path d="M59.1061 45.5637C46.6035 45.5637 34.1053 45.5505 21.6026 45.5856C20.6348 45.5856 20.2889 45.3491 20.3984 44.3769C20.4816 43.6587 20.4422 42.9186 20.4115 42.1917C20.3852 41.6049 20.6348 41.4078 21.1866 41.4516C21.5501 41.4822 21.9136 41.456 22.2814 41.456C47.0283 41.456 71.7752 41.4603 96.5221 41.4297C97.5293 41.4297 97.8971 41.6881 97.7745 42.6953C97.6607 43.593 98.1467 44.7579 97.5906 45.3359C96.9863 45.9622 95.7951 45.5505 94.8667 45.5505C82.9509 45.568 71.0307 45.5593 59.1149 45.5593L59.1061 45.5637Z" fill="white"/>
<path d="M40.8463 61.1037C34.4001 61.1037 27.9539 61.0906 21.5077 61.1212C20.6626 61.1212 20.3122 60.9242 20.3998 60.0352C20.4699 59.3126 20.448 58.5769 20.3998 57.85C20.356 57.1756 20.6144 56.9741 21.2756 56.9829C23.6054 57.0179 25.9395 56.996 28.2692 56.996C38.8669 56.996 49.469 57.0092 60.0666 56.9785C60.9994 56.9785 61.4154 57.1712 61.284 58.174C61.1614 59.1024 61.6694 60.3067 61.0651 60.9067C60.4651 61.5022 59.2652 61.095 58.3281 61.095C52.4994 61.1125 46.675 61.1037 40.8463 61.1037Z" fill="white"/>
</g>
<defs>
<clipPath id="clip0_0_887">
<rect width="126.993" height="130.89" fill="white"/>
</clipPath>
</defs>
</svg>
