<svg width="76" height="67" viewBox="0 0 76 67" fill="none" xmlns="http://www.w3.org/2000/svg">
<path d="M62.9272 66.0312C61.32 64.573 59.7041 63.1147 58.1013 61.6477C56.3846 60.0755 54.6636 58.5034 52.9689 56.9094C52.5791 56.5415 52.2375 56.4583 51.7076 56.6247C46.4044 58.2844 40.9567 58.88 35.4345 58.5559C26.952 58.0655 19.03 55.7401 12.0715 50.704C6.38289 46.5876 2.23141 41.3238 0.597964 34.3521C-0.580042 29.3248 0.00677088 24.4507 2.14382 19.765C5.62529 12.132 11.743 7.30175 19.1702 3.91663C23.6063 1.89343 28.3052 0.73294 33.1398 0.251228C40.9392 -0.52827 48.5108 0.496464 55.8022 3.46118C60.9346 5.55006 65.4408 8.52793 69.2113 12.6137C77.6763 21.7925 78.3595 34.6543 70.4857 44.4899C68.5807 46.8722 66.3955 48.9261 63.9431 50.6997C63.3651 51.1201 63.1855 51.558 63.1899 52.2411C63.2206 56.3225 63.2074 60.4083 63.2074 64.4898C63.2074 64.954 63.2074 65.4182 63.2074 65.8823C63.1111 65.9305 63.0191 65.9787 62.9228 66.0269L62.9272 66.0312Z" fill="#C3DDFF"/>
</svg>
