<svg width="48" height="49" viewBox="0 0 48 49" fill="none" xmlns="http://www.w3.org/2000/svg">
<circle cx="21.9748" cy="22.0798" r="19.204" fill="url(#paint0_linear_0_902)"/>
<rect x="0.39596" y="0.89596" width="46.7232" height="46.7232" rx="23.3616" fill="url(#paint1_linear_0_902)" fill-opacity="0.02"/>
<rect x="0.39596" y="0.89596" width="46.7232" height="46.7232" rx="23.3616" stroke="url(#paint2_linear_0_902)" stroke-width="0.791919"/>
<path d="M23.3176 12.3996C23.4454 12.3073 23.599 12.2577 23.7566 12.2577C23.9142 12.2577 24.0678 12.3073 24.1956 12.3996C24.8386 12.8636 26.2836 13.7116 28.0926 14.4406C29.9026 15.1706 32.0146 15.7576 34.0056 15.7576C34.2045 15.7576 34.3952 15.8366 34.5359 15.9773C34.6766 16.1179 34.7556 16.3087 34.7556 16.5076V24.2596C34.7556 27.2866 33.0526 30.1006 30.9176 32.2096C28.7846 34.3166 26.0906 35.8496 23.8846 36.2336L23.7566 36.2556L23.6276 36.2336C21.4226 35.8486 18.7276 34.3166 16.5946 32.2096C14.4606 30.1006 12.7576 27.2866 12.7576 24.2596V16.5076C12.7576 16.3087 12.8366 16.1179 12.9772 15.9773C13.1179 15.8366 13.3087 15.7576 13.5076 15.7576C15.4986 15.7576 17.6106 15.1706 19.4216 14.4406C21.2296 13.7106 22.6746 12.8626 23.3176 12.3996Z" stroke="white" stroke-width="1.93939" stroke-linecap="round" stroke-linejoin="round"/>
<path d="M19.906 24.156L22.9685 27.2185L29.0935 20.656" stroke="white" stroke-width="1.5" stroke-linecap="round" stroke-linejoin="round"/>
<defs>
<linearGradient id="paint0_linear_0_902" x1="41.1788" y1="22.0798" x2="2.77075" y2="22.0798" gradientUnits="userSpaceOnUse">
<stop stop-color="#24CBFF"/>
<stop offset="1" stop-color="#1C73E8"/>
</linearGradient>
<linearGradient id="paint1_linear_0_902" x1="41.5758" y1="40.8879" x2="3.56364" y2="10.597" gradientUnits="userSpaceOnUse">
<stop stop-color="#2142E7"/>
<stop offset="1" stop-color="#2142E7"/>
</linearGradient>
<linearGradient id="paint2_linear_0_902" x1="23.7576" y1="0.5" x2="23.7576" y2="48.0152" gradientUnits="userSpaceOnUse">
<stop stop-color="#03B5ED" stop-opacity="0"/>
<stop offset="1" stop-color="#1389FF"/>
</linearGradient>
</defs>
</svg>
