<svg width="48" height="49" viewBox="0 0 48 49" fill="none" xmlns="http://www.w3.org/2000/svg">
<circle cx="21.9748" cy="22.0798" r="19.204" fill="url(#paint0_linear_0_957)"/>
<rect x="0.39596" y="0.89596" width="46.7232" height="46.7232" rx="23.3616" fill="url(#paint1_linear_0_957)" fill-opacity="0.02"/>
<rect x="0.39596" y="0.89596" width="46.7232" height="46.7232" rx="23.3616" stroke="url(#paint2_linear_0_957)" stroke-width="0.791919"/>
<path d="M23.3176 12.3996C23.4454 12.3073 23.599 12.2577 23.7566 12.2577C23.9142 12.2577 24.0678 12.3073 24.1956 12.3996C24.8386 12.8636 26.2836 13.7116 28.0926 14.4406C29.9026 15.1706 32.0146 15.7576 34.0056 15.7576C34.2045 15.7576 34.3952 15.8366 34.5359 15.9772C34.6766 16.1179 34.7556 16.3087 34.7556 16.5076V24.2596C34.7556 27.2866 33.0526 30.1006 30.9176 32.2096C28.7846 34.3166 26.0906 35.8496 23.8846 36.2336L23.7566 36.2556L23.6276 36.2336C21.4226 35.8486 18.7276 34.3166 16.5946 32.2096C14.4606 30.1006 12.7576 27.2866 12.7576 24.2596V16.5076C12.7576 16.3087 12.8366 16.1179 12.9772 15.9772C13.1179 15.8366 13.3087 15.7576 13.5076 15.7576C15.4986 15.7576 17.6106 15.1706 19.4216 14.4406C21.2296 13.7106 22.6746 12.8626 23.3176 12.3996Z" stroke="white" stroke-width="1.93939" stroke-linecap="round" stroke-linejoin="round"/>
<g clip-path="url(#clip0_0_957)">
<path fill-rule="evenodd" clip-rule="evenodd" d="M27.9823 21.0321C28.0358 20.9788 28.0782 20.9154 28.1071 20.8456C28.1361 20.7758 28.151 20.701 28.1511 20.6255C28.1511 20.55 28.1363 20.4751 28.1074 20.4053C28.0786 20.3355 28.0362 20.2721 27.9828 20.2186C27.9295 20.1652 27.8661 20.1228 27.7963 20.0938C27.7265 20.0649 27.6517 20.05 27.5762 20.0499C27.5007 20.0499 27.4258 20.0647 27.356 20.0936C27.2862 20.1224 27.2228 20.1648 27.1693 20.2181L23.7003 23.6871L20.2323 20.2181C20.1244 20.1102 19.978 20.0496 19.8253 20.0496C19.6727 20.0496 19.5263 20.1102 19.4183 20.2181C19.3104 20.3261 19.2498 20.4725 19.2498 20.6251C19.2498 20.7778 19.3104 20.9242 19.4183 21.0321L22.8873 24.5001L19.4183 27.9681C19.3649 28.0216 19.3225 28.085 19.2936 28.1549C19.2646 28.2247 19.2498 28.2996 19.2498 28.3751C19.2498 28.4507 19.2646 28.5256 19.2936 28.5954C19.3225 28.6652 19.3649 28.7287 19.4183 28.7821C19.5263 28.8901 19.6727 28.9507 19.8253 28.9507C19.9009 28.9507 19.9758 28.9358 20.0456 28.9069C20.1154 28.878 20.1789 28.8356 20.2323 28.7821L23.7003 25.3131L27.1693 28.7821C27.2773 28.89 27.4236 28.9505 27.5762 28.9504C27.7288 28.9503 27.875 28.8896 27.9828 28.7816C28.0907 28.6737 28.1512 28.5274 28.1511 28.3748C28.151 28.2222 28.0903 28.076 27.9823 27.9681L24.5133 24.5001L27.9823 21.0321Z" fill="white" stroke="white" stroke-width="0.2" stroke-linecap="round" stroke-linejoin="round"/>
</g>
<defs>
<linearGradient id="paint0_linear_0_957" x1="41.1788" y1="22.0798" x2="2.77075" y2="22.0798" gradientUnits="userSpaceOnUse">
<stop stop-color="#24CBFF"/>
<stop offset="1" stop-color="#1C73E8"/>
</linearGradient>
<linearGradient id="paint1_linear_0_957" x1="41.5758" y1="40.8879" x2="3.56364" y2="10.597" gradientUnits="userSpaceOnUse">
<stop stop-color="#2142E7"/>
<stop offset="1" stop-color="#2142E7"/>
</linearGradient>
<linearGradient id="paint2_linear_0_957" x1="23.7576" y1="0.5" x2="23.7576" y2="48.0152" gradientUnits="userSpaceOnUse">
<stop stop-color="#03B5ED" stop-opacity="0"/>
<stop offset="1" stop-color="#1389FF"/>
</linearGradient>
<clipPath id="clip0_0_957">
<rect width="14" height="14" fill="white" transform="translate(17.4998 16.4998)"/>
</clipPath>
</defs>
</svg>
