<svg width="16" height="17" viewBox="0 0 16 17" fill="none" xmlns="http://www.w3.org/2000/svg">
<path d="M13.5519 2.41667C12.8299 1.68738 11.9699 1.10916 11.0222 0.71571C10.0744 0.322263 9.05773 0.121472 8.03153 0.125047C3.73179 0.125047 0.227429 3.62941 0.227429 7.92915C0.227429 9.30727 0.589677 10.646 1.26693 11.8273L0.164429 15.875L4.29879 14.7883C5.44066 15.4104 6.72428 15.7411 8.03153 15.7411C12.3313 15.7411 15.8356 12.2368 15.8356 7.93702C15.8356 5.85015 15.0245 3.88929 13.5519 2.41667ZM8.03153 14.4181C6.86603 14.4181 5.72416 14.1031 4.72404 13.5125L4.48779 13.3708L2.0308 14.0165L2.68442 11.6225L2.52692 11.3784C1.8794 10.3444 1.53557 9.14917 1.53467 7.92915C1.53467 4.35391 4.44842 1.44017 8.02365 1.44017C9.75615 1.44017 11.3863 2.11742 12.6069 3.34591C13.2113 3.94753 13.6903 4.66313 14.016 5.45123C14.3418 6.23933 14.5079 7.08425 14.5048 7.93702C14.5205 11.5123 11.6068 14.4181 8.03153 14.4181ZM11.591 9.56714C11.3941 9.47264 10.4334 9.00015 10.2601 8.92927C10.079 8.86627 9.95302 8.83477 9.81915 9.02377C9.68528 9.22064 9.31515 9.66164 9.2049 9.78764C9.09465 9.92152 8.97653 9.93727 8.77965 9.83489C8.58278 9.74039 7.95278 9.52777 7.21253 8.86627C6.62978 8.34652 6.24391 7.70865 6.12579 7.51178C6.01554 7.3149 6.11003 7.21253 6.21241 7.11015C6.29903 7.02353 6.40928 6.88178 6.50378 6.77153C6.59828 6.66128 6.63766 6.57465 6.70066 6.44865C6.76366 6.31478 6.73216 6.20453 6.68491 6.11003C6.63766 6.01553 6.24391 5.05478 6.08641 4.66103C5.92891 4.28303 5.76354 4.33028 5.64541 4.32241H5.26741C5.13354 4.32241 4.92879 4.36966 4.74766 4.56653C4.57441 4.76341 4.07042 5.23591 4.07042 6.19665C4.07042 7.1574 4.77129 8.08665 4.86579 8.21265C4.96029 8.34652 6.24391 10.3153 8.1969 11.1579C8.66153 11.3626 9.02378 11.4808 9.30728 11.5674C9.7719 11.717 10.1971 11.6934 10.5358 11.6461C10.9138 11.591 11.6934 11.1736 11.8509 10.7169C12.0163 10.2601 12.0163 9.87427 11.9611 9.78764C11.906 9.70102 11.7879 9.66164 11.591 9.56714Z" fill="white" stroke="white" stroke-width="0.2"/>
</svg>
